<svg id="visual" viewBox="0 0 900 600" width="900" height="600" xmlns="http://www.w3.org/2000/svg" xmlns:xlink="http://www.w3.org/1999/xlink" version="1.1"><rect x="0" y="0" width="900" height="600" fill="#001220"></rect><defs><linearGradient id="grad1_0" x1="33.3%" y1="0%" x2="100%" y2="100%"><stop offset="20%" stop-color="#001220" stop-opacity="1"></stop><stop offset="80%" stop-color="#001220" stop-opacity="1"></stop></linearGradient></defs><defs><linearGradient id="grad2_0" x1="0%" y1="0%" x2="66.7%" y2="100%"><stop offset="20%" stop-color="#001220" stop-opacity="1"></stop><stop offset="80%" stop-color="#001220" stop-opacity="1"></stop></linearGradient></defs><g transform="translate(900, 0)"><path d="M0 378.6C-29 365.4 -57.9 352.2 -93.4 348.7C-128.9 345.2 -170.9 351.5 -189.3 327.9C-207.6 304.2 -202.3 250.6 -224.2 224.2C-246 197.7 -295 198.4 -307.4 177.5C-319.8 156.6 -295.6 113.9 -301.4 80.8C-307.1 47.6 -342.9 23.8 -378.6 0L0 0Z" fill="#FBAE3C"></path></g><g transform="translate(0, 600)"><path d="M0 -378.6C35.8 -379.3 71.5 -379.9 96.5 -360.3C121.6 -340.6 135.9 -300.6 162 -280.6C188.1 -260.5 226 -260.5 239.7 -239.7C253.4 -219 243 -177.6 265 -153C287 -128.4 341.4 -120.7 365.7 -98C390 -75.3 384.3 -37.6 378.6 0L0 0Z" fill="#FBAE3C"></path></g></svg>